<?xml version="1.0" encoding="utf-8"?>
<!-- Generator: Adobe Illustrator 16.0.0, SVG Export Plug-In . SVG Version: 6.00 Build 0)  -->
<!DOCTYPE svg PUBLIC "-//W3C//DTD SVG 1.1//EN" "http://www.w3.org/Graphics/SVG/1.1/DTD/svg11.dtd">
<svg version="1.1" id="Layer_1" xmlns="http://www.w3.org/2000/svg" xmlns:xlink="http://www.w3.org/1999/xlink" x="0px" y="0px"
	 width="25px" height="25px" viewBox="0 0 25 25" enable-background="new 0 0 25 25" xml:space="preserve">
<g>
	<polygon fill="#333333" points="17.273,9.97 17.273,8.116 17.273,7.839 16.995,7.84 15.143,7.846 15.149,9.977 	"/>
	<path fill="#333333" d="M12.443,14.889c1.22,0,2.213-0.993,2.213-2.212c0-0.482-0.157-0.927-0.42-1.29
		c-0.402-0.557-1.055-0.922-1.793-0.922s-1.391,0.366-1.794,0.922c-0.262,0.363-0.418,0.808-0.418,1.29
		C10.231,13.896,11.223,14.889,12.443,14.889z"/>
	<path fill="#333333" d="M12.5,0.938C6.115,0.938,0.938,6.114,0.938,12.5c0,6.385,5.177,11.562,11.562,11.562
		S24.062,18.885,24.062,12.5C24.062,6.114,18.885,0.938,12.5,0.938z M18.728,11.386v5.145c0,1.339-1.09,2.431-2.429,2.431H8.587
		c-1.339,0-2.429-1.092-2.429-2.431v-5.145V8.82c0-1.339,1.089-2.429,2.429-2.429h7.712c1.339,0,2.429,1.09,2.429,2.429V11.386z"/>
	<path fill="#333333" d="M15.88,12.676c0,1.895-1.542,3.437-3.437,3.437c-1.896,0-3.437-1.542-3.437-3.437
		c0-0.457,0.091-0.892,0.252-1.29H7.383v5.145c0,0.665,0.54,1.206,1.204,1.206h7.712c0.664,0,1.205-0.541,1.205-1.206v-5.145h-1.878
		C15.789,11.785,15.88,12.22,15.88,12.676z"/>
</g>
</svg>
