<?xml version="1.0" encoding="utf-8"?>
<!-- Generator: Adobe Illustrator 16.0.0, SVG Export Plug-In . SVG Version: 6.00 Build 0)  -->
<!DOCTYPE svg PUBLIC "-//W3C//DTD SVG 1.1//EN" "http://www.w3.org/Graphics/SVG/1.1/DTD/svg11.dtd">
<svg version="1.1" id="Layer_1" xmlns="http://www.w3.org/2000/svg" xmlns:xlink="http://www.w3.org/1999/xlink" x="0px" y="0px"
	 width="25px" height="25px" viewBox="0 0 25 25" enable-background="new 0 0 25 25" xml:space="preserve">
<g>
	<path fill="#449AC8" d="M12.5,1.084C6.195,1.084,1.084,6.195,1.084,12.5c0,6.306,5.111,11.416,11.417,11.416
		c6.304,0,11.416-5.11,11.416-11.416C23.916,6.195,18.805,1.084,12.5,1.084z M18.858,18.045c0,0.508-0.421,0.919-0.941,0.919H7.061
		c-0.521,0-0.941-0.411-0.941-0.919V7.062c0-0.507,0.42-0.919,0.941-0.919h10.856c0.521,0,0.941,0.412,0.941,0.919V18.045z"/>
	<path fill="#449AC8" d="M14.704,10.951c-1.021,0-1.479,0.561-1.735,0.956v0.019h-0.013c0.004-0.006,0.009-0.013,0.013-0.019v-0.819
		h-1.923c0.024,0.542,0,5.787,0,5.787h1.923v-3.232c0-0.174,0.013-0.345,0.063-0.469c0.14-0.346,0.457-0.705,0.988-0.705
		c0.696,0,0.975,0.532,0.975,1.31v3.097h1.924v-3.318C16.919,11.778,15.97,10.951,14.704,10.951z"/>
	<path fill="#449AC8" d="M9.031,8.296c-0.658,0-1.088,0.433-1.088,1c0,0.556,0.417,1.001,1.063,1.001h0.013
		c0.67,0,1.088-0.445,1.088-1.001C10.095,8.729,9.689,8.296,9.031,8.296z"/>
	<rect x="8.057" y="11.088" fill="#449AC8" width="1.925" height="5.787"/>
</g>
</svg>
