<?xml version="1.0" encoding="utf-8"?>
<!-- Generator: Adobe Illustrator 16.0.0, SVG Export Plug-In . SVG Version: 6.00 Build 0)  -->
<!DOCTYPE svg PUBLIC "-//W3C//DTD SVG 1.1//EN" "http://www.w3.org/Graphics/SVG/1.1/DTD/svg11.dtd">
<svg version="1.1" id="Layer_1" xmlns="http://www.w3.org/2000/svg" xmlns:xlink="http://www.w3.org/1999/xlink" x="0px" y="0px"
	 width="25px" height="25px" viewBox="0 0 25 25" enable-background="new 0 0 25 25" xml:space="preserve">
<path fill="#2EB8E7" d="M12.5,0.917C6.104,0.917,0.917,6.104,0.917,12.5S6.104,24.082,12.5,24.082
	c6.396,0,11.582-5.186,11.582-11.582S18.896,0.917,12.5,0.917z M18.336,10.165c0.006,0.125,0.008,0.251,0.008,0.377
	c0,3.858-2.936,8.305-8.305,8.305c-1.648,0-3.183-0.482-4.475-1.311c0.229,0.025,0.461,0.039,0.696,0.039
	c1.368,0,2.626-0.465,3.625-1.248c-1.277-0.023-2.355-0.867-2.727-2.027c0.178,0.035,0.361,0.053,0.549,0.053
	c0.267,0,0.524-0.035,0.77-0.104c-1.336-0.268-2.342-1.448-2.342-2.861c0-0.013,0-0.025,0-0.037c0.394,0.219,0.844,0.35,1.322,0.366
	c-0.784-0.524-1.299-1.417-1.299-2.43c0-0.535,0.144-1.037,0.395-1.468c1.439,1.767,3.591,2.928,6.017,3.05
	c-0.05-0.213-0.076-0.437-0.076-0.665c0-1.612,1.307-2.919,2.918-2.919c0.84,0,1.598,0.355,2.131,0.922
	c0.666-0.131,1.289-0.374,1.854-0.708c-0.217,0.682-0.68,1.254-1.283,1.615c0.59-0.071,1.154-0.228,1.676-0.46
	C19.402,9.239,18.906,9.753,18.336,10.165z"/>
</svg>
